<svg xmlns="http://www.w3.org/2000/svg" width="35" height="20" viewBox="0 0 30.575 30.686"><defs><style>.a{fill:#f1f1f1;}</style></defs><path class="a" d="M856.846,1279.473a10.734,10.734,0,0,0-8.568,17.266L838,1304.621a3.244,3.244,0,1,0,4.588,4.588L851,1299.3a10.776,10.776,0,1,0,5.843-19.826Zm0,18.873a8.09,8.09,0,1,1,8.09-8.09A8.089,8.089,0,0,1,856.845,1298.346Z" transform="translate(-837.055 -1279.473)"/><path class="a" d="M855.612,1287.3H851.84v-3.773a.779.779,0,0,0-1.558,0v3.773H846.51a.778.778,0,0,0,0,1.557h3.772v3.77a.779.779,0,0,0,1.558,0v-3.77h3.772a.778.778,0,0,0,0-1.557Z" transform="translate(-831.27 -1277.291)"/></svg>