<svg xmlns="http://www.w3.org/2000/svg" width="35" height="20" viewBox="0 0 30.573 30.687"><defs><style>.a{fill:#f1f1f1;}</style></defs><path class="a" d="M773.9,1277.871a10.734,10.734,0,0,0-8.566,17.266l-10.275,7.883a3.244,3.244,0,0,0,4.588,4.588l8.411-9.911a10.776,10.776,0,1,0,5.842-19.826Zm0,18.873a8.089,8.089,0,1,1,8.09-8.09A8.089,8.089,0,0,1,773.9,1296.744Z" transform="translate(-754.106 -1277.871)"/><path class="a" d="M772.663,1283.875h-9.1a.778.778,0,1,0,0,1.557h9.1a.778.778,0,1,0,0-1.557Z" transform="translate(-748.321 -1273.868)"/></svg>